<svg xmlns="http://www.w3.org/2000/svg" xmlns:xlink="http://www.w3.org/1999/xlink" version="1.1" id="Ebene_1" x="0" y="0" viewBox="0 0 56.7 56.7" width="56.7" height="56.7">
  <path fill="#0072BC" d="M56.7 43.7c-6 7.8-16.5 13-28.3 13h28.3V43.7z"/>
  <path fill="#0072BC" d="M0 13C6 5.2 16.5 0 28.3 0H0V13z"/>
  <path fill="#002F67" d="M28.3 0C12.7 0 0 12.7 0 28.4v28.4h28.3C44 56.7 56.7 44 56.7 28.4V0H28.3z"/>
  <path fill="#FFFFFF" d="M11 35.2v-9.4H6.7c0-2.6 0.3-2.7 6-2.6h2.1v12.1h1.1c2.8 0 3.1 0.2 3.1 2.6H6.3c0-2.4 0.3-2.6 3.4-2.6H11zM14.9 17.2v2.2c0 1.8-1 1.6-3.9 1.6v-2.2C10.9 17 11.9 17.2 14.9 17.2"/>
  <path fill="#FFFFFF" d="M34 23.1l-5.5 14.7h-4.9l-5.6-14.7c3.9 0 4.1 0.4 4.9 2.3 0.8 2.1 3.2 8.7 3.2 8.7s2.4-6.8 3.1-8.7C29.9 23.5 30 23.1 34 23.1"/>
  <path fill="#FFFFFF" d="M49.5 30.7c0 6.9-0.5 7.2-7.1 7.2 -6 0-7.1-0.6-7.1-7.2 0-6.6 1.4-7.6 7.1-7.6h3.3v-3.7c0-1.8 1.5-2.3 3.8-2.3V30.7zM42.4 35.3c3 0 3.3-0.1 3.3-3.7v-5.8h-3.3c-3 0-3.2 0.4-3.2 4.9C39.2 34.9 39.4 35.3 42.4 35.3"/>
</svg>